<svg width="24" height="25" viewBox="0 0 24 25" fill="none" xmlns="http://www.w3.org/2000/svg">
<path d="M16 23.0001V19.1301C16.0375 18.6533 15.9731 18.1739 15.811 17.7239C15.6489 17.2739 15.3929 16.8635 15.06 16.5201C18.2 16.1701 21.5 14.9801 21.5 9.52006C21.4997 8.12389 20.9627 6.78126 20 5.77006C20.4559 4.54857 20.4236 3.19841 19.91 2.00006C19.91 2.00006 18.73 1.65006 16 3.48006C13.708 2.85888 11.292 2.85888 9 3.48006C6.27 1.65006 5.09 2.00006 5.09 2.00006C4.57638 3.19841 4.54414 4.54857 5 5.77006C4.03013 6.78876 3.49252 8.14352 3.5 9.55006C3.5 14.9701 6.8 16.1601 9.94 16.5501C9.611 16.8901 9.35726 17.2955 9.19531 17.74C9.03335 18.1845 8.96681 18.6582 9 19.1301V23.0001H16ZM9 20.0001C4 21.5001 4 17.5001 2 17.0001L9 20.0001Z" stroke="black" stroke-width="2" stroke-linecap="round" stroke-linejoin="round"/>
</svg>
